<svg width="111" height="30" viewBox="0 0 111 30" fill="none" xmlns="http://www.w3.org/2000/svg">
<path d="M19.2102 15.8988C19.2241 14.8152 19.512 13.7528 20.0469 12.8103C20.5818 11.8679 21.3464 11.0761 22.2695 10.5085C21.6831 9.67095 20.9094 8.98167 20.01 8.49542C19.1105 8.00917 18.1101 7.73934 17.0881 7.70736C14.9081 7.47854 12.7946 9.01186 11.6837 9.01186C10.5513 9.01186 8.84094 7.73008 6.99911 7.76798C5.80777 7.80647 4.64671 8.1529 3.62907 8.77353C2.61142 9.39415 1.77189 10.2678 1.19228 11.3094C-1.31848 15.6563 0.554317 22.045 2.95941 25.5587C4.16274 27.2793 5.56907 29.2013 7.40924 29.1331C9.20995 29.0584 9.88248 27.9849 12.0561 27.9849C14.2095 27.9849 14.8405 29.1331 16.718 29.0898C18.6502 29.0584 19.8677 27.3615 21.0288 25.6247C21.8933 24.3987 22.5586 23.0437 23 21.6099C21.8774 21.1351 20.9194 20.3404 20.2455 19.3248C19.5716 18.3092 19.2115 17.1177 19.2102 15.8988Z" fill="white"/>
<path d="M15.664 5.39659C16.7175 4.13185 17.2365 2.50624 17.1109 0.86499C15.5013 1.03405 14.0145 1.80332 12.9467 3.01953C12.4246 3.61368 12.0248 4.3049 11.77 5.05368C11.5153 5.80245 11.4106 6.5941 11.4619 7.38336C12.267 7.39165 13.0635 7.21715 13.7913 6.87301C14.5192 6.52887 15.1595 6.02405 15.664 5.39659Z" fill="white"/>
<path d="M40.2872 17.0349H35.306L34.1098 20.567H32L36.7181 7.49902H38.9101L43.6282 20.567H41.4824L40.2872 17.0349ZM35.8219 15.405H39.7703L37.8239 9.67259H37.7694L35.8219 15.405Z" fill="white"/>
<path d="M53.8177 15.8035C53.8177 18.7643 52.233 20.6665 49.8416 20.6665C49.2358 20.6982 48.6333 20.5586 48.1031 20.2638C47.573 19.969 47.1366 19.5309 46.8438 18.9996H46.7986V23.7187H44.8429V11.0392H46.7359V12.6239H46.7719C47.0781 12.0951 47.5219 11.6592 48.0561 11.3626C48.5903 11.066 49.1949 10.9198 49.8056 10.9395C52.2237 10.9395 53.8177 12.851 53.8177 15.8035ZM51.8075 15.8035C51.8075 13.8746 50.8107 12.6064 49.2897 12.6064C47.7954 12.6064 46.7904 13.9013 46.7904 15.8035C46.7904 17.7232 47.7954 19.0089 49.2897 19.0089C50.8107 19.0089 51.8075 17.75 51.8075 15.8035Z" fill="white"/>
<path d="M64.3041 15.8035C64.3041 18.7643 62.7194 20.6665 60.328 20.6665C59.7222 20.6982 59.1198 20.5586 58.5896 20.2638C58.0594 19.969 57.623 19.5309 57.3303 18.9996H57.285V23.7187H55.3293V11.0392H57.2223V12.6239H57.2583C57.5645 12.0951 58.0083 11.6592 58.5425 11.3626C59.0767 11.066 59.6813 10.9198 60.292 10.9395C62.7102 10.9395 64.3041 12.851 64.3041 15.8035ZM62.294 15.8035C62.294 13.8746 61.2971 12.6064 59.7761 12.6064C58.2819 12.6064 57.2768 13.9013 57.2768 15.8035C57.2768 17.7232 58.2819 19.0089 59.7761 19.0089C61.2971 19.0089 62.294 17.7499 62.294 15.8035H62.294Z" fill="white"/>
<path d="M71.2347 16.9258C71.3796 18.2218 72.6386 19.0726 74.3589 19.0726C76.0073 19.0726 77.1932 18.2217 77.1932 17.0532C77.1932 16.0389 76.478 15.4316 74.7844 15.0153L73.0907 14.6073C70.6911 14.0277 69.5771 12.9055 69.5771 11.0845C69.5771 8.82972 71.542 7.28101 74.3322 7.28101C77.0935 7.28101 78.9865 8.82972 79.0503 11.0845H77.0761C76.9579 9.78032 75.8798 8.99313 74.3044 8.99313C72.729 8.99313 71.6509 9.78958 71.6509 10.9488C71.6509 11.8727 72.3395 12.4163 74.0238 12.8325L75.4636 13.186C78.1448 13.8201 79.2588 14.8971 79.2588 16.8086C79.2588 19.2535 77.3114 20.7847 74.214 20.7847C71.3159 20.7847 69.3592 19.2894 69.2328 16.9257L71.2347 16.9258Z" fill="white"/>
<path d="M83.4796 8.78442V11.0392H85.2914V12.5879H83.4796V17.8403C83.4796 18.6563 83.8424 19.0366 84.6388 19.0366C84.8539 19.0328 85.0687 19.0177 85.2822 18.9913V20.5308C84.9241 20.5977 84.5601 20.628 84.1959 20.6212C82.267 20.6212 81.5147 19.8967 81.5147 18.0489V12.5879H80.1294V11.0392H81.5147V8.78442H83.4796Z" fill="white"/>
<path d="M86.3407 15.8034C86.3407 12.8056 88.1062 10.9219 90.8594 10.9219C93.6218 10.9219 95.3791 12.8056 95.3791 15.8034C95.3791 18.8093 93.6311 20.6848 90.8594 20.6848C88.0887 20.6848 86.3407 18.8093 86.3407 15.8034ZM93.3865 15.8034C93.3865 13.747 92.4441 12.5333 90.8594 12.5333C89.2747 12.5333 88.3334 13.7562 88.3334 15.8034C88.3334 17.868 89.2747 19.0724 90.8594 19.0724C92.4441 19.0724 93.3864 17.868 93.3864 15.8034H93.3865Z" fill="white"/>
<path d="M96.9916 11.0393H98.8568V12.661H98.9021C99.0283 12.1545 99.325 11.7069 99.7423 11.3935C100.16 11.08 100.672 10.9197 101.194 10.9396C101.419 10.9389 101.644 10.9633 101.864 11.0126V12.8419C101.579 12.7549 101.283 12.715 100.985 12.7237C100.701 12.7122 100.418 12.7623 100.155 12.8705C99.892 12.9788 99.6556 13.1427 99.462 13.351C99.2684 13.5592 99.1221 13.8069 99.0333 14.077C98.9444 14.3471 98.9151 14.6332 98.9473 14.9157V20.567H96.9916L96.9916 11.0393Z" fill="white"/>
<path d="M110.881 17.7683C110.618 19.4979 108.933 20.6848 106.778 20.6848C104.006 20.6848 102.286 18.8278 102.286 15.8486C102.286 12.8601 104.016 10.9219 106.696 10.9219C109.332 10.9219 110.99 12.7326 110.99 15.6215V16.2915H104.26V16.4097C104.229 16.7603 104.273 17.1136 104.389 17.4459C104.505 17.7783 104.69 18.0822 104.933 18.3375C105.175 18.5927 105.469 18.7934 105.795 18.9264C106.121 19.0593 106.472 19.1213 106.823 19.1084C107.285 19.1517 107.749 19.0446 108.146 18.8032C108.542 18.5617 108.85 18.1988 109.024 17.7683L110.881 17.7683ZM104.27 14.9247H109.033C109.05 14.6094 109.003 14.2939 108.892 13.998C108.782 13.702 108.612 13.4321 108.393 13.205C108.173 12.978 107.909 12.7987 107.617 12.6785C107.325 12.5583 107.012 12.4998 106.696 12.5066C106.377 12.5047 106.062 12.5658 105.767 12.6866C105.472 12.8073 105.204 12.9853 104.979 13.2101C104.753 13.4349 104.574 13.7022 104.453 13.9964C104.331 14.2907 104.269 14.6062 104.27 14.9247V14.9247Z" fill="white"/>
</svg>
