<svg width="80" height="80" viewBox="0 0 80 80" fill="none" xmlns="http://www.w3.org/2000/svg">
<g clip-path="url(#clip0_703_186279)">
<path d="M65.3438 49.0476C65.3438 50.7045 64.0006 52.0476 62.3438 52.0476H3C1.34315 52.0476 0 50.7045 0 49.0476V10C0 8.34315 1.34315 7 3 7H62.3438C64.0006 7 65.3438 8.34315 65.3438 10V49.0476Z" fill="url(#paint0_linear_703_186279)"/>
<g filter="url(#filter0_bi_703_186279)">
<path d="M57.1806 73H36.0833V65.05H57.1806C65.8114 65.05 72.8333 58.2143 72.8333 49.8125C72.8333 41.4107 65.8114 34.575 57.1806 34.575H45.6111V26.625H57.1806C70.3139 26.625 81 37.0276 81 49.8125C81 62.5974 70.3139 73 57.1806 73Z" fill="#B8E7F1" fill-opacity="0.6"/>
<path d="M32 30.6L45.6111 41.2V20L32 30.6Z" fill="#B8E7F1" fill-opacity="0.6"/>
</g>
</g>
<defs>
<filter id="filter0_bi_703_186279" x="28" y="16" width="57" height="61" filterUnits="userSpaceOnUse" color-interpolation-filters="sRGB">
<feFlood flood-opacity="0" result="BackgroundImageFix"/>
<feGaussianBlur in="BackgroundImageFix" stdDeviation="2"/>
<feComposite in2="SourceAlpha" operator="in" result="effect1_backgroundBlur_703_186279"/>
<feBlend mode="normal" in="SourceGraphic" in2="effect1_backgroundBlur_703_186279" result="shape"/>
<feColorMatrix in="SourceAlpha" type="matrix" values="0 0 0 0 0 0 0 0 0 0 0 0 0 0 0 0 0 0 127 0" result="hardAlpha"/>
<feOffset dy="0.2"/>
<feGaussianBlur stdDeviation="1"/>
<feComposite in2="hardAlpha" operator="arithmetic" k2="-1" k3="1"/>
<feColorMatrix type="matrix" values="0 0 0 0 1 0 0 0 0 1 0 0 0 0 1 0 0 0 0.8 0"/>
<feBlend mode="normal" in2="shape" result="effect2_innerShadow_703_186279"/>
</filter>
<linearGradient id="paint0_linear_703_186279" x1="16.1371" y1="36.7627" x2="31.355" y2="-4.45382" gradientUnits="userSpaceOnUse">
<stop stop-color="#01B1E9"/>
<stop offset="0.541667" stop-color="#ABC3F8"/>
<stop offset="0.541767" stop-color="#ABC3F8"/>
<stop offset="0.791667" stop-color="#FAD1F5"/>
</linearGradient>
<clipPath id="clip0_703_186279">
<rect width="80" height="80" fill="white"/>
</clipPath>
</defs>
</svg>
