<svg width="24" height="24" viewBox="0 0 24 24" fill="none" xmlns="http://www.w3.org/2000/svg">
<path d="M13.7667 1.99219L9 6.72729L10.7333 13.1842L13.0733 13.7869L12.8133 12.8399L11.4267 12.4955L10.04 7.41603L15.1533 8.79351L16.54 13.873L15.76 13.7008L16.02 14.6478L17.2333 14.9922L22 10.2571L20.2667 3.80013L13.7667 1.99219ZM10.2133 6.64119L14.0267 2.93921L19.14 4.31669L15.4133 8.01868L10.2133 6.64119ZM21.0467 9.91272L17.32 13.6147L15.9333 8.53523L19.66 4.83325L21.0467 9.91272Z" fill="#01B1E9" stroke="#01B1E9" stroke-miterlimit="10"/>
<path d="M13.2667 10.7255L10.9267 10.1189L11.1867 11.0722L12.5733 11.4189L13.96 16.5322L8.84667 15.1455L7.46 10.0322L8.24 10.2055L7.98 9.33885L6.76667 8.99219L2 13.7589L3.73333 20.2589L10.2333 21.9922L15 17.2255L13.2667 10.7255ZM2.95333 14.0189L6.68 10.2922L8.06667 15.4055L4.34 19.1322L2.95333 14.0189ZM9.97333 21.0389L4.86 19.6522L8.58667 15.9255L13.7 17.3122L9.97333 21.0389Z" fill="#01B1E9" stroke="#01B1E9" stroke-miterlimit="10"/>
</svg>
