<svg width="70" height="70" viewBox="0 0 70 70" fill="none" xmlns="http://www.w3.org/2000/svg">
<path d="M37.9173 14.5833C37.9173 17.805 30.7352 20.4167 21.8757 20.4167C13.0161 20.4167 5.83398 17.805 5.83398 14.5833M37.9173 14.5833C37.9173 11.3617 30.7352 8.75 21.8757 8.75C13.0161 8.75 5.83398 11.3617 5.83398 14.5833M37.9173 14.5833V27.5834C34.3546 28.6533 32.084 30.2719 32.084 32.0833M5.83398 14.5833V49.5833C5.83398 52.805 13.0161 55.4167 21.8757 55.4167C25.7537 55.4167 29.3104 54.9163 32.084 54.0833V32.0833M5.83398 26.25C5.83398 29.4717 13.0161 32.0833 21.8757 32.0833C25.7537 32.0833 29.3104 31.5829 32.084 30.75M5.83398 37.9167C5.83398 41.1383 13.0161 43.75 21.8757 43.75C25.7537 43.75 29.3104 43.2496 32.084 42.4166M64.1673 32.0833C64.1673 35.305 56.9852 37.9167 48.1256 37.9167C39.2661 37.9167 32.084 35.305 32.084 32.0833M64.1673 32.0833C64.1673 28.8617 56.9852 26.25 48.1256 26.25C39.2661 26.25 32.084 28.8617 32.084 32.0833M64.1673 32.0833V55.4167C64.1673 58.6383 56.9852 61.25 48.1256 61.25C39.2661 61.25 32.084 58.6383 32.084 55.4167V32.0833M64.1673 43.75C64.1673 46.9717 56.9852 49.5833 48.1256 49.5833C39.2661 49.5833 32.084 46.9717 32.084 43.75" stroke="url(#paint0_linear_3328_188366)" stroke-width="2.5" stroke-linecap="round" stroke-linejoin="round"/>
<defs>
<linearGradient id="paint0_linear_3328_188366" x1="20.2398" y1="43.4364" x2="41.5893" y2="-0.85615" gradientUnits="userSpaceOnUse">
<stop stop-color="#FAD1F5" stop-opacity="0.7"/>
<stop offset="0.25" stop-color="#ABC3F8"/>
<stop offset="0.432292" stop-color="#89BFF5"/>
<stop offset="0.75" stop-color="#01B1E9"/>
<stop offset="1" stop-color="#01B1E9"/>
</linearGradient>
</defs>
</svg>
