<svg width="24" height="24" viewBox="0 0 24 24" fill="none" xmlns="http://www.w3.org/2000/svg">
<path d="M14.4946 13.6728C14.4946 12.5 13.7909 12.0979 12.3833 11.9303C11.3779 11.7963 11.1768 11.5282 11.1768 11.059C11.1768 10.5899 11.512 10.2884 12.1822 10.2884C12.7855 10.2884 13.1206 10.4894 13.2882 10.992C13.3217 11.0926 13.4222 11.1596 13.5228 11.1596H14.0589C14.193 11.1596 14.2936 11.059 14.2936 10.9251V10.8915C14.1595 10.1543 13.5562 9.58466 12.7855 9.51766V8.71344C12.7855 8.57938 12.6849 8.47885 12.5174 8.44531H12.0147C11.8806 8.44531 11.7801 8.54584 11.7465 8.71344V9.48413C10.7411 9.61819 10.1044 10.2884 10.1044 11.1261C10.1044 12.2319 10.7747 12.6675 12.1822 12.8351C13.1206 13.0026 13.4222 13.2037 13.4222 13.7398C13.4222 14.276 12.953 14.6446 12.3163 14.6446C11.4449 14.6446 11.1433 14.2759 11.0428 13.7733C11.0093 13.6393 10.9088 13.5722 10.8082 13.5722H10.2384C10.1044 13.5722 10.0039 13.6728 10.0039 13.8068V13.8404C10.1379 14.678 10.6741 15.2812 11.7801 15.4488V16.253C11.7801 16.387 11.8806 16.4875 12.0482 16.5211H12.5508C12.6849 16.5211 12.7855 16.4206 12.819 16.253V15.4488C13.8244 15.2812 14.4946 14.5775 14.4946 13.6728V13.6728Z" fill="#01B1E9"/>
<path fill-rule="evenodd" clip-rule="evenodd" d="M7.61473 10.7733C6.64279 13.3536 7.98334 16.2689 10.5974 17.2071C10.6979 17.2742 10.7984 17.4082 10.7984 17.5087V17.9779C10.7984 18.0449 10.7984 18.0784 10.7649 18.1119C10.7314 18.2459 10.5974 18.3129 10.4633 18.2459C8.58658 17.6428 7.14549 16.2018 6.54225 14.3253C5.53686 11.142 7.27957 7.75749 10.4633 6.75221C10.4968 6.71875 10.5638 6.71875 10.5974 6.71875C10.7314 6.75221 10.7984 6.85273 10.7984 6.9868V7.4559C10.7984 7.6235 10.7314 7.72403 10.5974 7.79102C9.22336 8.29366 8.11742 9.36593 7.61473 10.7733ZM13.8456 6.88714C13.879 6.75308 14.0131 6.68609 14.1472 6.75308C15.9904 7.35625 17.465 8.79717 18.0682 10.7072C19.0736 13.8906 17.3309 17.2751 14.1472 18.2803C14.1136 18.3138 14.0466 18.3138 14.0131 18.3138C13.879 18.2803 13.812 18.1798 13.812 18.0457V17.5766C13.812 17.409 13.879 17.3085 14.0131 17.2415C15.3871 16.7389 16.4931 15.6666 16.9957 14.2592C17.9677 11.6789 16.6271 8.76364 14.0131 7.82543C13.9126 7.75836 13.812 7.62437 13.812 7.49031V7.02121C13.812 6.95413 13.812 6.92068 13.8456 6.88714Z" fill="#01B1E9"/>
<path d="M10.5974 17.2071L10.7361 16.9991L10.7106 16.9822L10.6818 16.9718L10.5974 17.2071ZM7.61473 10.7733L7.84871 10.8615L7.85016 10.8574L7.61473 10.7733ZM10.7649 18.1119L10.5884 17.9349L10.5392 17.9839L10.5223 18.0513L10.7649 18.1119ZM10.4633 18.2459L10.575 18.0223L10.558 18.0138L10.5398 18.0079L10.4633 18.2459ZM6.54225 14.3253L6.30386 14.4006L6.30425 14.4018L6.54225 14.3253ZM10.4633 6.75221L10.5386 6.9906L10.5967 6.97225L10.6398 6.9292L10.4633 6.75221ZM10.5974 6.71875L10.6579 6.47619L10.6281 6.46875H10.5974V6.71875ZM10.5974 7.79102L10.6833 8.0258L10.6965 8.02096L10.7091 8.01466L10.5974 7.79102ZM14.1472 6.75308L14.0354 6.97672L14.0519 6.98495L14.0694 6.99068L14.1472 6.75308ZM13.8456 6.88714L14.0223 7.06393L14.0713 7.01492L14.0881 6.94768L13.8456 6.88714ZM18.0682 10.7072L17.8298 10.7825L17.8298 10.7825L18.0682 10.7072ZM14.1472 18.2803L14.0719 18.0419L14.0138 18.0603L13.9706 18.1033L14.1472 18.2803ZM14.0131 18.3138L13.9526 18.5564L13.9824 18.5638H14.0131V18.3138ZM14.0131 17.2415L13.9272 17.0067L13.914 17.0116L13.9014 17.0179L14.0131 17.2415ZM16.9957 14.2592L16.7618 14.1711L16.7603 14.1751L16.9957 14.2592ZM14.0131 7.82543L13.8744 8.0334L13.8998 8.05039L13.9287 8.06073L14.0131 7.82543ZM10.6818 16.9718C8.19912 16.0807 6.92598 13.311 7.84868 10.8614L7.38077 10.6852C6.3596 13.3962 7.76756 16.4571 10.5129 17.4424L10.6818 16.9718ZM11.0484 17.5087C11.0484 17.3847 10.9912 17.2754 10.9411 17.203C10.8872 17.1252 10.815 17.0518 10.7361 16.9991L10.4586 17.4151C10.4803 17.4295 10.5086 17.4567 10.5301 17.4877C10.5403 17.5024 10.5461 17.5139 10.5488 17.5207C10.5518 17.5284 10.5484 17.5237 10.5484 17.5087H11.0484ZM11.0484 17.9779V17.5087H10.5484V17.9779H11.0484ZM10.9415 18.2889C11.06 18.1707 11.0484 18.0245 11.0484 17.9779H10.5484C10.5484 17.996 10.5484 18.0053 10.5481 18.0124C10.5479 18.019 10.5476 18.016 10.5491 18.0084C10.5509 17.9993 10.5549 17.9851 10.5634 17.9691C10.5719 17.9531 10.5815 17.9417 10.5884 17.9349L10.9415 18.2889ZM10.3515 18.4696C10.4807 18.5341 10.6275 18.5408 10.7566 18.4813C10.8845 18.4222 10.9737 18.3078 11.0075 18.1724L10.5223 18.0513C10.5223 18.0514 10.5226 18.0504 10.5234 18.0487C10.5242 18.047 10.5256 18.0447 10.5277 18.0421C10.532 18.0367 10.5385 18.0312 10.5471 18.0273C10.5557 18.0233 10.564 18.022 10.5705 18.0222C10.5768 18.0224 10.5785 18.024 10.575 18.0223L10.3515 18.4696ZM6.30425 14.4018C6.93215 16.3551 8.43337 17.8561 10.3868 18.4839L10.5398 18.0079C8.73978 17.4294 7.35883 16.0486 6.78026 14.2488L6.30425 14.4018ZM10.388 6.51381C7.07152 7.56101 5.25723 11.0867 6.30386 14.4006L6.78065 14.25C5.81649 11.1972 7.48762 7.95396 10.5386 6.9906L10.388 6.51381ZM10.5974 6.46875C10.582 6.46875 10.5375 6.46831 10.4893 6.47632C10.4469 6.48338 10.3589 6.50322 10.2867 6.57521L10.6398 6.9292C10.6189 6.95008 10.5987 6.96004 10.5882 6.96431C10.5826 6.96659 10.5783 6.96787 10.5758 6.96855C10.5732 6.96923 10.5716 6.9695 10.5714 6.96954C10.5711 6.96958 10.5732 6.96925 10.5783 6.96902C10.5835 6.96878 10.5887 6.96875 10.5974 6.96875V6.46875ZM11.0484 6.9868C11.0484 6.87846 11.0211 6.76526 10.9504 6.66799C10.8782 6.56884 10.7748 6.50536 10.6579 6.47619L10.5368 6.96131C10.5417 6.96253 10.545 6.96372 10.547 6.96457C10.548 6.96499 10.5487 6.96534 10.5491 6.96557C10.5496 6.9658 10.5498 6.96593 10.5498 6.96594C10.5498 6.96595 10.5496 6.96585 10.5494 6.96564C10.5491 6.96543 10.5488 6.96514 10.5483 6.96476C10.5475 6.96396 10.5467 6.96303 10.546 6.9621C10.5423 6.95697 10.5484 6.96107 10.5484 6.9868H11.0484ZM11.0484 7.4559V6.9868H10.5484V7.4559H11.0484ZM10.7091 8.01466C10.8065 7.966 10.8973 7.89594 10.9611 7.79221C11.0247 7.68879 11.0484 7.57327 11.0484 7.4559H10.5484C10.5484 7.50613 10.5386 7.52468 10.5353 7.53017C10.5321 7.53536 10.5223 7.54905 10.4856 7.56738L10.7091 8.01466ZM7.85016 10.8574C8.32689 9.52273 9.37622 8.50394 10.6833 8.0258L10.5115 7.55624C9.07049 8.08338 7.90796 9.20914 7.37929 10.6892L7.85016 10.8574ZM14.2589 6.52944C14.1298 6.46491 13.983 6.45816 13.8539 6.51772C13.7259 6.57676 13.6368 6.69125 13.603 6.82661L14.0881 6.94768C14.0881 6.94761 14.0879 6.94856 14.0871 6.95027C14.0862 6.95198 14.0849 6.95429 14.0828 6.95689C14.0784 6.96227 14.0719 6.96778 14.0634 6.97171C14.0548 6.97569 14.0464 6.97699 14.04 6.97678C14.0336 6.97657 14.032 6.97499 14.0354 6.97672L14.2589 6.52944ZM18.3066 10.6319C17.6785 8.6432 16.1428 7.14309 14.2249 6.51548L14.0694 6.99068C15.8379 7.5694 17.2514 8.95115 17.8298 10.7825L18.3066 10.6319ZM14.2225 18.5187C17.539 17.4715 19.3532 13.9458 18.3066 10.6319L17.8298 10.7825C18.794 13.8353 17.1229 17.0786 14.0719 18.0419L14.2225 18.5187ZM14.0131 18.5638C14.0284 18.5638 14.073 18.5642 14.1212 18.5562C14.1636 18.5492 14.2516 18.5293 14.3237 18.4573L13.9706 18.1033C13.9916 18.0825 14.0118 18.0725 14.0223 18.0682C14.0279 18.066 14.0322 18.0647 14.0347 18.064C14.0373 18.0633 14.0388 18.063 14.0391 18.063C14.0393 18.063 14.0373 18.0633 14.0322 18.0635C14.027 18.0638 14.0217 18.0638 14.0131 18.0638V18.5638ZM13.562 18.0457C13.562 18.1541 13.5894 18.2673 13.6601 18.3645C13.7322 18.4637 13.8357 18.5272 13.9526 18.5564L14.0736 18.0712C14.0688 18.07 14.0655 18.0688 14.0635 18.068C14.0625 18.0676 14.0618 18.0672 14.0614 18.067C14.0609 18.0667 14.0607 18.0666 14.0607 18.0666C14.0607 18.0666 14.0608 18.0667 14.0611 18.0669C14.0614 18.0671 14.0617 18.0674 14.0621 18.0678C14.063 18.0686 14.0638 18.0695 14.0645 18.0704C14.0682 18.0756 14.062 18.0715 14.062 18.0457H13.562ZM13.562 17.5766V18.0457H14.062V17.5766H13.562ZM13.9014 17.0179C13.804 17.0665 13.7132 17.1366 13.6494 17.2403C13.5857 17.3438 13.562 17.4593 13.562 17.5766H14.062C14.062 17.5264 14.0718 17.5079 14.0752 17.5024C14.0784 17.4972 14.0882 17.4835 14.1248 17.4652L13.9014 17.0179ZM16.7603 14.1751C16.2836 15.5098 15.2343 16.5286 13.9272 17.0067L14.099 17.4763C15.54 16.9492 16.7025 15.8234 17.2312 14.3433L16.7603 14.1751ZM13.9287 8.06073C16.4113 8.95181 17.6845 11.7215 16.7618 14.1711L17.2297 14.3473C18.2509 11.6364 16.8429 8.57547 14.0976 7.59013L13.9287 8.06073ZM13.562 7.49031C13.562 7.61851 13.6092 7.73202 13.6646 7.8182C13.7204 7.90502 13.7948 7.98031 13.8744 8.0334L14.1518 7.61746C14.1309 7.60348 14.1047 7.57824 14.0852 7.54779C14.0652 7.51669 14.062 7.49618 14.062 7.49031H13.562ZM13.562 7.02121V7.49031H14.062V7.02121H13.562ZM13.6688 6.71036C13.5506 6.82855 13.562 6.97431 13.562 7.02121H14.062C14.062 7.00302 14.0621 6.99376 14.0624 6.98668C14.0626 6.98004 14.0629 6.98305 14.0614 6.99068C14.0595 6.99974 14.0555 7.01393 14.0471 7.02987C14.0386 7.04581 14.0291 7.05715 14.0223 7.06393L13.6688 6.71036Z" fill="#01B1E9"/>
<circle cx="9.64179" cy="9.64179" r="10.4918" transform="matrix(-1 0 0 1 22 2.71484)" stroke="#01B1E9" stroke-width="1.7"/>
</svg>
