<svg width="24" height="24" viewBox="0 0 24 24" fill="none" xmlns="http://www.w3.org/2000/svg">
<path d="M20.4451 4.8291H3.30491C2.44751 4.8291 1.75 5.52661 1.75 6.38401V7.72196V10.0362V17.1599C1.75 18.0173 2.44751 18.7148 3.30491 18.7148H20.4451C21.3025 18.7148 22 18.0173 22 17.1599V10.0362V7.72196V6.38401C22 5.52661 21.3025 4.8291 20.4451 4.8291ZM3.30491 5.40767H20.4451C20.9835 5.40767 21.4214 5.8457 21.4214 6.38401V7.43267H2.32857V6.38401C2.32857 5.8457 2.76646 5.40767 3.30491 5.40767ZM21.4214 9.74696H2.32857V8.01124H21.4214V9.74696ZM20.4451 18.1362H3.30491C2.76646 18.1362 2.32857 17.6982 2.32857 17.1599V10.3255H21.4214V17.1599C21.4214 17.6982 20.9835 18.1362 20.4451 18.1362Z" fill="#01B1E9" stroke="#01B1E9"/>
<path d="M4.49827 14.2309H8.25898C8.41888 14.2309 8.54827 14.1014 8.54827 13.9416C8.54827 13.7819 8.41888 13.6523 8.25898 13.6523H4.49827C4.33837 13.6523 4.20898 13.7819 4.20898 13.9416C4.20898 14.1014 4.33837 14.2309 4.49827 14.2309Z" fill="#01B1E9" stroke="#01B1E9"/>
<path d="M9.9947 15.6768H4.49827C4.33837 15.6768 4.20898 15.8063 4.20898 15.966C4.20898 16.1258 4.33837 16.2553 4.49827 16.2553H9.9947C10.1546 16.2553 10.284 16.1258 10.284 15.966C10.284 15.8063 10.1546 15.6768 9.9947 15.6768Z" fill="#01B1E9" stroke="#01B1E9"/>
</svg>
