<svg width="24" height="24" viewBox="0 0 24 24" fill="none" xmlns="http://www.w3.org/2000/svg">
<circle cx="9.64179" cy="9.64179" r="10.4918" transform="matrix(-1 0 0 1 22.2852 2.71484)" stroke="#01B1E9" stroke-width="1.7"/>
<path fill-rule="evenodd" clip-rule="evenodd" d="M11.6216 12.2479V12.2479C11.6819 12.2524 11.9932 12.271 12.6876 12.271C13.2399 12.271 13.6321 12.2544 13.7696 12.2479V12.2479C15.9041 12.154 17.4973 11.7825 17.4973 11.3377C17.4973 10.8928 15.9041 10.5218 13.7696 10.4264V11.8779C13.6301 11.8879 13.2304 11.9115 12.6781 11.9115C12.0153 11.9115 11.6834 11.8839 11.6236 11.8784V10.4274C9.49371 10.5223 7.90404 10.8939 7.90404 11.3377C7.90404 11.7815 9.49321 12.153 11.6236 12.2474V12.2474L11.6216 12.2479ZM11.6192 10.2794V8.98059H8.64677V7H16.7397V8.98059H13.7677V10.2789C16.1834 10.3898 18 10.8683 18 11.4416C18 12.015 16.1834 12.4929 13.7677 12.6044V16.7664H11.6197V12.6029C9.20963 12.4919 7.39602 12.014 7.39602 11.4411C7.39602 10.8683 9.20812 10.3903 11.6197 10.2789V10.2789L11.6192 10.2794Z" fill="#01B1E9"/>
</svg>
