<svg width="24" height="24" viewBox="0 0 24 24" fill="none" xmlns="http://www.w3.org/2000/svg">
<path d="M12 2C6.48622 2 2 6.486 2 11.9993C2 17.514 6.48622 22 12 22C17.514 22 22 17.5138 22 11.9993C22 6.486 17.514 2 12 2ZM12.4971 15.6849V12.4984H16.5331C16.4958 13.7464 16.3284 14.9489 16.0358 16.0769C14.9 15.8462 13.7104 15.7147 12.4971 15.6849ZM14.7276 20.6644C15.528 19.8178 16.196 18.6167 16.6724 17.1636C17.4347 17.3531 18.1913 17.5918 18.926 17.8722C17.8064 19.1889 16.3627 20.1484 14.7276 20.6644ZM12.4971 21.0251V16.6013C13.6113 16.6282 14.7133 16.7482 15.7753 16.9587C15.0171 19.2156 13.8011 20.7218 12.4971 21.0251ZM16.5331 11.502H12.4971V8.31444C13.708 8.28578 14.8976 8.15444 16.0358 7.92378C16.3287 9.04956 16.4958 10.2527 16.5331 11.502ZM16.6724 6.83667C16.196 5.38333 15.5276 4.18222 14.7271 3.33556C16.3613 3.85022 17.8056 4.81 18.926 6.12844C18.1973 6.40756 17.4398 6.64578 16.6724 6.83667ZM12.4971 7.39867V2.97533C13.8011 3.27844 15.0167 4.78489 15.7753 7.04156C14.7189 7.25067 13.6171 7.37044 12.4971 7.39867ZM21.0676 12.4984C20.9796 14.1502 20.4382 15.7438 19.4978 17.116C18.6564 16.7813 17.794 16.5016 16.9316 16.2844C17.2384 15.0898 17.4113 13.8171 17.4464 12.4984H21.0676ZM21.0676 11.502H17.4464C17.4113 10.1836 17.2382 8.91044 16.9316 7.71444C17.7956 7.49822 18.658 7.21844 19.4982 6.88244C20.4382 8.25667 20.9796 9.85067 21.0676 11.502ZM7.06867 16.2844C6.20244 16.5024 5.33844 16.782 4.49756 17.116C3.56044 15.7447 3.01956 14.1513 2.92889 12.4984H6.55022C6.58622 13.8222 6.76044 15.0953 7.06867 16.2844ZM2.92889 11.502C3.01933 9.84911 3.56089 8.25511 4.49844 6.88244C5.33644 7.21756 6.2 7.49711 7.06844 7.71444C6.76022 8.90533 6.586 10.1784 6.55 11.502H2.92889ZM7.46556 12.4984H11.5018V15.6849C10.2898 15.7147 9.1 15.8462 7.96311 16.0769C7.66778 14.9438 7.50044 13.7407 7.46556 12.4984ZM7.32533 17.1636C7.80289 18.6173 8.47178 19.8184 9.27156 20.6644C7.63422 20.1487 6.19044 19.1891 5.07289 17.8724C5.80156 17.5933 6.55844 17.3556 7.32533 17.1636ZM11.5018 16.6013V21.0251C10.1951 20.7218 8.97911 19.2151 8.22356 16.9587C9.28422 16.7482 10.3862 16.6282 11.5018 16.6013ZM11.5018 8.31444V11.502H7.46556C7.50044 10.2582 7.66778 9.05533 7.96289 7.92378C9.10222 8.15444 10.2918 8.28578 11.5018 8.31444ZM5.07267 6.12844C6.19111 4.80956 7.63511 3.85 9.27178 3.33556C8.47156 4.18156 7.80311 5.38267 7.32511 6.83667C6.55267 6.644 5.796 6.406 5.07267 6.12844ZM11.5018 2.97489V7.39867C10.3804 7.37067 9.27844 7.25067 8.22356 7.04156C8.97933 4.78489 10.1951 3.27844 11.5018 2.97489Z" fill="#01B1E9" stroke="#01B1E9" stroke-width="0.5"/>
</svg>
