<svg width="120" height="28" viewBox="0 0 120 28" fill="none" xmlns="http://www.w3.org/2000/svg">
<path fill-rule="evenodd" clip-rule="evenodd" d="M60.4603 10.883C58.0277 10.883 56.0558 12.7363 56.0558 15.2927C56.0558 17.8259 58.0405 19.7025 60.4603 19.7025C62.893 19.7025 64.8649 17.8362 64.8649 15.2927C64.8649 12.7363 62.893 10.883 60.4603 10.883ZM60.4603 17.9551C59.1294 17.9551 57.9839 16.8488 57.9839 15.2824C57.9839 13.6927 59.132 12.6097 60.4603 12.6097C61.7912 12.6097 62.9367 13.6927 62.9367 15.2824C62.9393 16.8592 61.7912 17.9551 60.4603 17.9551ZM50.8507 10.883C48.418 10.883 46.4462 12.7363 46.4462 15.2927C46.4462 17.8259 48.4309 19.7025 50.8507 19.7025C53.2833 19.7025 55.2552 17.8362 55.2552 15.2927C55.2552 12.7363 53.2808 10.883 50.8507 10.883ZM50.8507 17.9551C49.5198 17.9551 48.3743 16.8488 48.3743 15.2824C48.3743 13.6927 49.5224 12.6097 50.8507 12.6097C52.1816 12.6097 53.3271 13.6927 53.3271 15.2824C53.3271 16.8592 52.1816 17.9551 50.8507 17.9551ZM39.4159 12.2297V14.096H43.8771C43.7406 15.1428 43.3957 15.9157 42.868 16.4456C42.2141 17.1021 41.205 17.8155 39.4262 17.8155C36.6846 17.8155 34.5403 15.5926 34.5403 12.8397C34.5403 10.0869 36.6846 7.8639 39.4262 7.8639C40.9064 7.8639 41.985 8.45066 42.7856 9.20026L44.1036 7.87682C42.9915 6.8067 41.5113 5.9873 39.4365 5.9873C35.6755 5.9873 32.5195 9.06327 32.5195 12.8294C32.5195 16.6058 35.6729 19.6715 39.4365 19.6715C41.4676 19.6715 42.9915 19.0046 44.1963 17.7483C45.4242 16.5154 45.8129 14.7758 45.8129 13.3722C45.8129 12.9354 45.7794 12.5425 45.7099 12.209H39.4133C39.4159 12.2064 39.4159 12.2297 39.4159 12.2297ZM86.1873 13.6824C85.8192 12.6924 84.7071 10.8727 82.4263 10.8727C80.1661 10.8727 78.287 12.6588 78.287 15.2824C78.287 17.7587 80.1456 19.6921 82.6451 19.6921C84.653 19.6921 85.8218 18.4592 86.3031 17.7354L84.8127 16.7325C84.3184 17.4692 83.6311 17.9525 82.6554 17.9525C81.6695 17.9525 80.9796 17.5028 80.5214 16.6162L86.3932 14.1735C86.3932 14.1761 86.1873 13.6824 86.1873 13.6824ZM80.1996 15.1557C80.1533 13.4523 81.5176 12.5864 82.4933 12.5864C83.263 12.5864 83.9039 12.9664 84.1228 13.5195L80.1996 15.1557ZM75.4295 19.4285H77.3577V6.47325H75.4295V19.4285ZM72.2632 11.8627H72.1937C71.7587 11.3431 70.9323 10.8727 69.8769 10.8727C67.6862 10.8727 65.668 12.8087 65.668 15.2953C65.668 17.7716 67.6759 19.6844 69.8769 19.6844C70.9195 19.6844 71.7587 19.2114 72.1937 18.6815H72.2632V19.3148C72.2632 20.9975 71.3674 21.9048 69.9232 21.9048C68.7417 21.9048 68.008 21.0518 67.7094 20.3383L66.0336 21.0414C66.5149 22.2046 67.7995 23.6444 69.9207 23.6444C72.1809 23.6444 74.0961 22.308 74.0961 19.0485V11.1363H72.2735V11.8627C72.2761 11.8627 72.2632 11.8627 72.2632 11.8627ZM70.0494 17.9551C68.7185 17.9551 67.6064 16.8385 67.6064 15.2953C67.6064 13.7392 68.7185 12.6123 70.0494 12.6123C71.3674 12.6123 72.3894 13.7522 72.3894 15.2953C72.4022 16.8385 71.37 17.9551 70.0494 17.9551ZM95.2152 6.47325H90.6047V19.4285H92.5328V14.5225H95.2177C97.3518 14.5225 99.4498 12.969 99.4498 10.503C99.4498 8.03708 97.3595 6.47325 95.2152 6.47325ZM95.2718 12.7131H92.5302V8.26714H95.2718C96.716 8.26714 97.532 9.46392 97.532 10.4901C97.532 11.5059 96.7057 12.7131 95.2718 12.7131ZM107.178 10.8597C105.777 10.8597 104.333 11.4827 103.736 12.8397L105.445 13.5531C105.813 12.8397 106.488 12.5967 107.201 12.5967C108.2 12.5967 109.209 13.1964 109.232 14.2666V14.4036C108.887 14.2071 108.13 13.9073 107.224 13.9073C105.378 13.9073 103.507 14.9205 103.507 16.8204C103.507 18.56 105.02 19.6766 106.707 19.6766C108.001 19.6766 108.714 19.0899 109.16 18.4101H109.229V19.413H111.088V14.4501C111.088 12.1392 109.379 10.8597 107.178 10.8597ZM106.936 17.9551C106.305 17.9551 105.422 17.6449 105.422 16.8488C105.422 15.8459 106.524 15.4659 107.463 15.4659C108.313 15.4659 108.715 15.6494 109.219 15.9028C109.08 17.0659 108.102 17.9448 106.936 17.9551ZM117.869 11.1363L115.655 16.7558H115.585L113.291 11.1363H111.217L114.658 18.9916L112.697 23.3574H114.705L120 11.1363H117.869ZM100.513 19.4285H102.441V6.47325H100.513V19.4285Z" fill="white"/>
<path fill-rule="evenodd" clip-rule="evenodd" d="M0.900285 1.07638C0.601673 1.39949 0.429199 1.89319 0.429199 2.5394V25.4592C0.429199 26.1054 0.601673 26.5991 0.910581 26.9093L0.990383 26.9791L13.7792 14.1376V13.8507L0.980086 1.00659L0.900285 1.07638Z" fill="url(#paint0_linear_3866_68163)"/>
<path fill-rule="evenodd" clip-rule="evenodd" d="M18.0343 18.4312L13.7688 14.1481V13.8483L18.0343 9.56519L18.127 9.62205L23.1725 12.5016C24.6167 13.3184 24.6167 14.6677 23.1725 15.4948L18.127 18.3743L18.0343 18.4312Z" fill="url(#paint1_linear_3866_68163)"/>
<path fill-rule="evenodd" clip-rule="evenodd" d="M18.127 18.3744L13.7689 13.9983L0.900238 26.9199C1.37132 27.4265 2.16162 27.4834 3.04458 26.9897L18.127 18.3744Z" fill="url(#paint2_linear_3866_68163)"/>
<path fill-rule="evenodd" clip-rule="evenodd" d="M18.127 9.62184L3.04458 1.01948C2.16162 0.512852 1.36875 0.582643 0.900238 1.08927L13.7689 13.998L18.127 9.62184Z" fill="url(#paint3_linear_3866_68163)"/>
<path opacity="0.2" fill-rule="evenodd" clip-rule="evenodd" d="M18.0344 18.2815L3.05484 26.827C2.21821 27.3103 1.47168 27.2767 0.990294 26.8373L0.910492 26.9174L0.990294 26.9872C1.47168 27.4241 2.21821 27.4602 3.05484 26.9769L18.1374 18.3745L18.0344 18.2815Z" fill="black"/>
<path opacity="0.12" fill-rule="evenodd" clip-rule="evenodd" d="M23.1726 15.345L18.0215 18.2814L18.1142 18.3744L23.1597 15.4949C23.8831 15.0813 24.2383 14.5385 24.2383 13.9983C24.1946 14.4946 23.8264 14.965 23.1726 15.345Z" fill="black"/>
<path opacity="0.25" fill-rule="evenodd" clip-rule="evenodd" d="M3.04463 1.16977L23.1726 12.6516C23.8265 13.0213 24.1946 13.5046 24.2512 13.9983C24.2512 13.4581 23.896 12.9153 23.1726 12.5017L3.04463 1.01985C1.60048 0.190111 0.429199 0.882849 0.429199 2.53973V2.68965C0.429199 1.03018 1.60048 0.350372 3.04463 1.16977Z" fill="white"/>
<defs>
<linearGradient id="paint0_linear_3866_68163" x1="12.6321" y1="2.29212" x2="-7.86454" y2="7.73106" gradientUnits="userSpaceOnUse">
<stop stop-color="#00A0FF"/>
<stop offset="0.00657" stop-color="#00A1FF"/>
<stop offset="0.2601" stop-color="#00BEFF"/>
<stop offset="0.5122" stop-color="#00D2FF"/>
<stop offset="0.7604" stop-color="#00DFFF"/>
<stop offset="1" stop-color="#00E3FF"/>
</linearGradient>
<linearGradient id="paint1_linear_3866_68163" x1="25.0558" y1="13.9982" x2="0.0779912" y2="13.9982" gradientUnits="userSpaceOnUse">
<stop stop-color="#FFE000"/>
<stop offset="0.4087" stop-color="#FFBD00"/>
<stop offset="0.7754" stop-color="#FFA500"/>
<stop offset="1" stop-color="#FF9C00"/>
</linearGradient>
<linearGradient id="paint2_linear_3866_68163" x1="15.7572" y1="16.3795" x2="-0.78853" y2="44.1132" gradientUnits="userSpaceOnUse">
<stop stop-color="#FF3A44"/>
<stop offset="1" stop-color="#C31162"/>
</linearGradient>
<linearGradient id="paint3_linear_3866_68163" x1="-2.34022" y1="-6.54714" x2="5.04153" y2="5.83918" gradientUnits="userSpaceOnUse">
<stop stop-color="#32A071"/>
<stop offset="0.0685" stop-color="#2DA771"/>
<stop offset="0.4762" stop-color="#15CF74"/>
<stop offset="0.8009" stop-color="#06E775"/>
<stop offset="1" stop-color="#00F076"/>
</linearGradient>
</defs>
</svg>
