<svg width="24" height="24" viewBox="0 0 24 24" fill="none" xmlns="http://www.w3.org/2000/svg">
<path d="M12 2.16338C15.2063 2.16338 15.5859 2.17744 16.8469 2.23369C18.0188 2.28525 18.6516 2.48213 19.0734 2.64619C19.6313 2.86182 20.0344 3.12432 20.4516 3.5415C20.8734 3.96338 21.1313 4.36182 21.3469 4.91963C21.5109 5.3415 21.7078 5.979 21.7594 7.14619C21.8156 8.41182 21.8297 8.7915 21.8297 11.9931C21.8297 15.1993 21.8156 15.579 21.7594 16.8399C21.7078 18.0118 21.5109 18.6446 21.3469 19.0665C21.1313 19.6243 20.8687 20.0274 20.4516 20.4446C20.0297 20.8665 19.6313 21.1243 19.0734 21.3399C18.6516 21.504 18.0141 21.7009 16.8469 21.7524C15.5813 21.8087 15.2016 21.8228 12 21.8228C8.79375 21.8228 8.41406 21.8087 7.15313 21.7524C5.98125 21.7009 5.34844 21.504 4.92656 21.3399C4.36875 21.1243 3.96563 20.8618 3.54844 20.4446C3.12656 20.0228 2.86875 19.6243 2.65313 19.0665C2.48906 18.6446 2.29219 18.0071 2.24063 16.8399C2.18438 15.5743 2.17031 15.1946 2.17031 11.9931C2.17031 8.78682 2.18438 8.40713 2.24063 7.14619C2.29219 5.97432 2.48906 5.3415 2.65313 4.91963C2.86875 4.36182 3.13125 3.95869 3.54844 3.5415C3.97031 3.11963 4.36875 2.86182 4.92656 2.64619C5.34844 2.48213 5.98594 2.28525 7.15313 2.23369C8.41406 2.17744 8.79375 2.16338 12 2.16338ZM12 0.00244141C8.74219 0.00244141 8.33438 0.0165039 7.05469 0.0727539C5.77969 0.129004 4.90313 0.335254 4.14375 0.630566C3.35156 0.939941 2.68125 1.34775 2.01563 2.01807C1.34531 2.68369 0.9375 3.354 0.628125 4.1415C0.332812 4.90557 0.126563 5.77744 0.0703125 7.05244C0.0140625 8.33682 0 8.74463 0 12.0024C0 15.2603 0.0140625 15.6681 0.0703125 16.9478C0.126563 18.2228 0.332812 19.0993 0.628125 19.8587C0.9375 20.6509 1.34531 21.3212 2.01563 21.9868C2.68125 22.6524 3.35156 23.0649 4.13906 23.3696C4.90313 23.6649 5.775 23.8712 7.05 23.9274C8.32969 23.9837 8.7375 23.9978 11.9953 23.9978C15.2531 23.9978 15.6609 23.9837 16.9406 23.9274C18.2156 23.8712 19.0922 23.6649 19.8516 23.3696C20.6391 23.0649 21.3094 22.6524 21.975 21.9868C22.6406 21.3212 23.0531 20.6509 23.3578 19.8634C23.6531 19.0993 23.8594 18.2274 23.9156 16.9524C23.9719 15.6728 23.9859 15.2649 23.9859 12.0071C23.9859 8.74932 23.9719 8.3415 23.9156 7.06182C23.8594 5.78682 23.6531 4.91025 23.3578 4.15088C23.0625 3.354 22.6547 2.68369 21.9844 2.01807C21.3188 1.35244 20.6484 0.939941 19.8609 0.635254C19.0969 0.339941 18.225 0.133691 16.95 0.0774414C15.6656 0.0165039 15.2578 0.00244141 12 0.00244141Z" fill="#828498"/>
<path d="M12 5.83838C8.59688 5.83838 5.83594 8.59932 5.83594 12.0024C5.83594 15.4056 8.59688 18.1665 12 18.1665C15.4031 18.1665 18.1641 15.4056 18.1641 12.0024C18.1641 8.59932 15.4031 5.83838 12 5.83838ZM12 16.0009C9.79219 16.0009 8.00156 14.2103 8.00156 12.0024C8.00156 9.79463 9.79219 8.004 12 8.004C14.2078 8.004 15.9984 9.79463 15.9984 12.0024C15.9984 14.2103 14.2078 16.0009 12 16.0009Z" fill="#828498"/>
<path d="M19.8469 5.59434C19.8469 6.39121 19.2 7.0334 18.4078 7.0334C17.6109 7.0334 16.9688 6.38653 16.9688 5.59434C16.9688 4.79746 17.6156 4.15527 18.4078 4.15527C19.2 4.15527 19.8469 4.80215 19.8469 5.59434Z" fill="#828498"/>
</svg>
