<svg width="24" height="24" viewBox="0 0 24 24" fill="none" xmlns="http://www.w3.org/2000/svg">
<path d="M12 1C7.58909 1 4 4.49674 4 8.79525C4 10.543 5.23951 13.4206 7.68442 17.3488C9.46127 20.2033 11.2637 22.6197 11.2815 22.6436C11.4489 22.8675 11.7158 23 12 23C12.284 23 12.5509 22.8675 12.7182 22.6436C12.7363 22.6197 14.5387 20.2033 16.3156 17.3488C18.7602 13.4208 20 10.543 20 8.79525C19.9997 4.49674 16.4112 1 12 1ZM12 20.6384C9.76933 17.5162 5.77761 11.3907 5.77761 8.79525C5.77761 5.45226 8.56896 2.73236 11.9997 2.73236C15.4308 2.73236 18.2219 5.45226 18.2219 8.79525C18.2219 11.3893 14.2299 17.5157 12 20.6384ZM12 4.46447C9.54933 4.46447 7.55572 6.40705 7.55572 8.795C7.55572 11.183 9.54933 13.126 12 13.126C14.4507 13.126 16.4445 11.1832 16.4445 8.79525C16.4445 6.4073 14.4504 4.46447 12 4.46447ZM12 11.3934C10.5294 11.3934 9.33333 10.2277 9.33333 8.795C9.33333 7.36233 10.5294 6.19659 12 6.19659C13.4703 6.19659 14.6667 7.36233 14.6667 8.795C14.6667 10.2277 13.4703 11.3934 12 11.3934Z" fill="#01B1E9" stroke="#01B1E9" stroke-width="0.5"/>
</svg>
