<svg width="80" height="80" viewBox="0 0 80 80" fill="none" xmlns="http://www.w3.org/2000/svg">
<path d="M60 18.045H0V7.77836C0 6.04503 1.32833 4.6017 3.05667 4.4567L56.39 0.0116958C58.3333 -0.149971 60 1.38503 60 3.33503V18.045Z" fill="#01B1E9"/>
<path d="M63.3333 58.0451H3.33333C1.49167 58.0451 0 56.5534 0 54.7118V8.0451C0 9.88677 1.49167 11.3784 3.33333 11.3784H63.3333C65.175 11.3784 66.6667 12.8701 66.6667 14.7118V54.7118C66.6667 56.5534 65.175 58.0451 63.3333 58.0451Z" fill="url(#paint0_linear_703_186260)"/>
<g filter="url(#filter0_bi_703_186260)">
<circle cx="56.5" cy="53.5" r="23.5" fill="#B8E7F1" fill-opacity="0.6"/>
</g>
<defs>
<filter id="filter0_bi_703_186260" x="29" y="26" width="55" height="55" filterUnits="userSpaceOnUse" color-interpolation-filters="sRGB">
<feFlood flood-opacity="0" result="BackgroundImageFix"/>
<feGaussianBlur in="BackgroundImageFix" stdDeviation="2"/>
<feComposite in2="SourceAlpha" operator="in" result="effect1_backgroundBlur_703_186260"/>
<feBlend mode="normal" in="SourceGraphic" in2="effect1_backgroundBlur_703_186260" result="shape"/>
<feColorMatrix in="SourceAlpha" type="matrix" values="0 0 0 0 0 0 0 0 0 0 0 0 0 0 0 0 0 0 127 0" result="hardAlpha"/>
<feOffset dy="0.2"/>
<feGaussianBlur stdDeviation="1"/>
<feComposite in2="hardAlpha" operator="arithmetic" k2="-1" k3="1"/>
<feColorMatrix type="matrix" values="0 0 0 0 1 0 0 0 0 1 0 0 0 0 1 0 0 0 0.8 0"/>
<feBlend mode="normal" in2="shape" result="effect2_innerShadow_703_186260"/>
</filter>
<linearGradient id="paint0_linear_703_186260" x1="16.4638" y1="41.0798" x2="34.4436" y2="-3.68222" gradientUnits="userSpaceOnUse">
<stop stop-color="#01B1E9"/>
<stop offset="0.541667" stop-color="#ABC3F8"/>
<stop offset="0.541767" stop-color="#ABC3F8"/>
<stop offset="0.791667" stop-color="#FAD1F5"/>
</linearGradient>
</defs>
</svg>
