<svg width="24" height="24" viewBox="0 0 24 24" fill="none" xmlns="http://www.w3.org/2000/svg">
<path d="M21.6641 2.38809C21.6282 2.24816 21.5185 2.13887 21.3781 2.10308C19.1546 1.53649 16.8555 1.69182 14.7292 2.55241C12.8829 3.2997 11.3157 4.51882 10.1514 6.10417C8.51486 5.87817 6.86257 6.42598 5.6872 7.59695L3.07472 10.1996C2.97022 10.3037 2.93246 10.4571 2.97678 10.5975C3.02107 10.738 3.14012 10.8423 3.2856 10.8682L6.80168 11.4927L6.15539 12.5463L3.88178 13.5171C3.62389 13.6271 3.55937 13.9623 3.75751 14.1598L4.45228 14.852C4.13364 15.0097 3.84071 15.2186 3.58679 15.4716C3.06293 15.9934 2.59698 17.1741 2.20187 18.9807C1.91594 20.2881 1.77248 21.4367 1.76649 21.4849C1.73475 21.7412 1.95419 21.9571 2.20874 21.9255C2.25716 21.9195 3.41008 21.7766 4.72241 21.4917C6.5359 21.0981 7.72101 20.6339 8.24484 20.112C8.49875 19.8591 8.70854 19.5672 8.86677 19.2498L9.56154 19.942C9.75998 20.1395 10.0964 20.0748 10.2068 19.8182L11.1812 17.5531L12.2387 16.9093L12.8657 20.4121C12.8916 20.557 12.9963 20.6756 13.1373 20.7198C13.2794 20.7642 13.4331 20.7255 13.5368 20.6222L16.1493 18.0196C17.3247 16.8486 17.8745 15.2025 17.6477 13.5722C19.2391 12.4123 20.4629 10.851 21.213 9.01167C22.0769 6.89357 22.2329 4.60311 21.6641 2.38809ZM20.9514 2.81316C21.3072 4.34673 21.2863 5.89351 20.9331 7.3462C18.8125 6.61668 17.1325 4.94113 16.4012 2.83134C17.858 2.47974 19.4102 2.4583 20.9514 2.81316ZM4.1734 10.2229L6.24827 8.15594C7.15315 7.25445 8.39065 6.78762 9.64955 6.85026L7.24581 10.7688L4.1734 10.2229ZM10.9261 16.7821L6.92942 12.8005L7.53981 11.8055L11.9249 16.1741L10.9261 16.7821ZM7.68385 19.5532C6.93259 20.3016 4.13206 20.8481 2.6243 21.071C2.84814 19.569 3.39669 16.779 4.14794 16.0306C4.40577 15.7738 4.71631 15.5768 5.05551 15.4529L8.26373 18.649C8.13941 18.987 7.94165 19.2963 7.68385 19.5532ZM9.70838 18.9703L4.73302 14.0137L6.3374 13.3287L10.396 17.3719L9.70838 18.9703ZM15.5883 17.4607L13.5135 19.5278L12.9656 16.4669L16.899 14.0723C16.9619 15.3264 16.4932 16.5592 15.5883 17.4607ZM16.4854 13.3976L12.6215 15.75L7.96546 11.1116L10.3268 7.26221C11.5814 5.21714 13.4769 3.75944 15.6373 3.04852C16.4462 5.42365 18.3345 7.30243 20.7152 8.10714C20.0097 10.2357 18.5597 12.1347 16.4854 13.3976Z" fill="#01B1E9" stroke="#01B1E9"/>
<path d="M12.8052 7.30892C11.8009 8.30947 11.801 9.92856 12.8052 10.9291C13.8095 11.9296 15.4347 11.9295 16.4391 10.9291C17.4433 9.92853 17.4433 8.30941 16.4391 7.30892C15.4347 6.30845 13.8094 6.30853 12.8052 7.30892ZM15.8779 10.3701C15.1838 11.0616 14.0604 11.0616 13.3662 10.3701C12.6721 9.67853 12.6721 8.55937 13.3662 7.86785C14.0604 7.17631 15.1838 7.17634 15.8779 7.86785C16.5721 8.55942 16.5721 9.67858 15.8779 10.3701Z" fill="#01B1E9" stroke="#01B1E9"/>
</svg>
