<svg width="70" height="70" viewBox="0 0 70 70" fill="none" xmlns="http://www.w3.org/2000/svg">
<path d="M26.2493 33.5417L32.0827 39.3751L45.2077 26.2501M58.3327 35.0001C58.3327 49.3164 42.717 59.7287 37.0352 63.0435C36.3894 63.4202 36.0666 63.6085 35.6109 63.7062C35.2573 63.7821 34.7414 63.7821 34.3878 63.7062C33.9321 63.6085 33.6093 63.4202 32.9635 63.0435C27.2817 59.7287 11.666 49.3164 11.666 35.0001V21.0514C11.666 18.7195 11.666 17.5535 12.0474 16.5513C12.3843 15.6659 12.9318 14.8759 13.6425 14.2495C14.447 13.5405 15.5388 13.1311 17.7222 12.3123L33.3608 6.44787C33.9671 6.22048 34.2703 6.10679 34.5822 6.06172C34.8589 6.02174 35.1398 6.02174 35.4165 6.06172C35.7284 6.10679 36.0316 6.22048 36.6379 6.44787L52.2765 12.3123C54.4599 13.1311 55.5517 13.5405 56.3562 14.2495C57.0669 14.8759 57.6144 15.6659 57.9513 16.5513C58.3327 17.5535 58.3327 18.7195 58.3327 21.0514V35.0001Z" stroke="url(#paint0_linear_3339_185758)" stroke-width="2.5" stroke-linecap="round" stroke-linejoin="round"/>
<defs>
<linearGradient id="paint0_linear_3339_185758" x1="23.1907" y1="44.1745" x2="50.8269" y2="2.4627" gradientUnits="userSpaceOnUse">
<stop stop-color="#FAD1F5" stop-opacity="0.7"/>
<stop offset="0.25" stop-color="#ABC3F8"/>
<stop offset="0.432292" stop-color="#89BFF5"/>
<stop offset="0.75" stop-color="#01B1E9"/>
<stop offset="1" stop-color="#01B1E9"/>
</linearGradient>
</defs>
</svg>
