<svg width="80" height="80" viewBox="0 0 80 80" fill="none" xmlns="http://www.w3.org/2000/svg">
<g filter="url(#filter0_d_3147_187487)">
<path fill-rule="evenodd" clip-rule="evenodd" d="M40 9C45.9334 9 51.7336 10.7595 56.6671 14.0559C61.6006 17.3524 65.4458 22.0377 67.7164 27.5195C69.987 33.0013 70.5811 39.0333 69.4236 44.8527C68.266 50.6721 65.4088 56.0176 61.2132 60.2132C57.0176 64.4088 51.6721 67.266 45.8527 68.4236C40.0333 69.5811 34.0013 68.987 28.5195 66.7164C23.0377 64.4458 18.3524 60.6006 15.0559 55.6671C11.7595 50.7336 10 44.9334 10 39C10 31.0435 13.1607 23.4129 18.7868 17.7868C24.4129 12.1607 32.0435 9 40 9Z" fill="#25D366"/>
<path fill-rule="evenodd" clip-rule="evenodd" d="M47.5986 41.993C47.2275 41.8026 45.3916 40.9042 45.0498 40.7772C44.708 40.6503 44.4639 40.5917 44.21 40.9676C43.9561 41.3436 43.2334 42.1786 43.0234 42.4325C42.8135 42.6864 42.5889 42.7157 42.2178 42.5253C41.1185 42.0851 40.104 41.4573 39.2197 40.6698C38.4039 39.915 37.7031 39.0448 37.1396 38.0868C37.0978 38.0263 37.0688 37.9579 37.0545 37.8858C37.0402 37.8136 37.0408 37.7393 37.0564 37.6675C37.0719 37.5956 37.1021 37.5277 37.145 37.468C37.1879 37.4082 37.2426 37.3579 37.3057 37.3202C37.4766 37.1542 37.6768 36.8856 37.8672 36.6659C38.0195 36.4759 38.1444 36.2655 38.2383 36.0409C38.2873 35.9377 38.3102 35.8242 38.3051 35.7101C38.3 35.596 38.267 35.4849 38.209 35.3866C38.1113 35.201 37.3643 33.3651 37.0615 32.6132C36.7588 31.8612 36.4463 31.9882 36.2168 31.9735C35.9873 31.9589 35.7529 31.9735 35.5039 31.9735C35.3164 31.984 35.1331 32.0327 34.9652 32.1167C34.7972 32.2007 34.6482 32.3181 34.5273 32.4618C34.1049 32.8617 33.7704 33.3453 33.5451 33.8816C33.3198 34.418 33.2086 34.9954 33.2188 35.577C33.2188 37.413 34.5566 39.1854 34.7422 39.4393C34.9277 39.6932 37.3447 43.4335 41.1045 45.0448C41.7986 45.3444 42.5075 45.6084 43.2285 45.8358C43.9892 46.0673 44.7936 46.1175 45.5771 45.9823C46.2949 45.8798 47.7842 45.0839 48.0967 44.2098C48.3416 43.6532 48.418 43.037 48.3164 42.4374C48.2285 42.2714 47.9795 42.1786 47.6035 41.9882L47.5986 41.993ZM51.3584 28.3212C48.7962 25.7628 45.392 24.2222 41.7789 23.9859C38.1659 23.7497 34.59 24.834 31.7165 27.037C28.8431 29.24 26.8677 32.4117 26.1578 35.9622C25.4479 39.5128 26.0519 43.2002 27.8574 46.3387L25.7383 54.0682L33.6582 51.993C35.8461 53.183 38.2966 53.8074 40.7871 53.8094C43.7416 53.8103 46.6301 52.935 49.087 51.2941C51.544 49.6532 53.4592 47.3205 54.5902 44.5911C55.7213 41.8616 56.0175 38.8581 55.4414 35.9603C54.8652 33.0624 53.4426 30.4006 51.3535 28.3114L51.3584 28.3212ZM40.7969 51.2899C38.5642 51.2942 36.3715 50.6971 34.4492 49.5614L33.9951 49.288L29.3223 50.5038L30.5771 45.9237L30.2842 45.4354C28.8319 43.1003 28.1965 40.3489 28.4778 37.6135C28.7591 34.878 29.9411 32.3136 31.8383 30.3229C33.7354 28.3323 36.2402 27.0283 38.9589 26.6158C41.6777 26.2034 44.4564 26.7058 46.8586 28.0442C49.2608 29.3826 51.1503 31.4811 52.2303 34.0101C53.3102 36.539 53.5194 39.355 52.825 42.0158C52.1306 44.6766 50.572 47.0312 48.3939 48.7099C46.2159 50.3886 43.5419 51.2961 40.792 51.2899H40.7969Z" fill="white"/>
</g>
<defs>
<filter id="filter0_d_3147_187487" x="0" y="0" width="80" height="80" filterUnits="userSpaceOnUse" color-interpolation-filters="sRGB">
<feFlood flood-opacity="0" result="BackgroundImageFix"/>
<feColorMatrix in="SourceAlpha" type="matrix" values="0 0 0 0 0 0 0 0 0 0 0 0 0 0 0 0 0 0 127 0" result="hardAlpha"/>
<feOffset dy="1"/>
<feGaussianBlur stdDeviation="5"/>
<feComposite in2="hardAlpha" operator="out"/>
<feColorMatrix type="matrix" values="0 0 0 0 0 0 0 0 0 0 0 0 0 0 0 0 0 0 0.25 0"/>
<feBlend mode="normal" in2="BackgroundImageFix" result="effect1_dropShadow_3147_187487"/>
<feBlend mode="normal" in="SourceGraphic" in2="effect1_dropShadow_3147_187487" result="shape"/>
</filter>
</defs>
</svg>
